<svg xmlns="http://www.w3.org/2000/svg" id="_레이어_1" viewBox="0 0 1000 335.9530029"><defs><linearGradient id="_GS_Yellow_to_Yellow_Lt_Green" x1="39.8859399" x2="-9.1752108" y1="93.9835765" y2="143.0447272" gradientUnits="userSpaceOnUse"><stop offset="0" stop-color="#f9be00"/><stop offset="1" stop-color="#c7c300"/></linearGradient><linearGradient id="_GS_Yellow_Lt_Green_to_Lt_Green" x1="-10.4747803" x2="31.5805627" y1="178.8497919" y2="220.9058689" gradientUnits="userSpaceOnUse"><stop offset="0" stop-color="#c7c300"/><stop offset="1" stop-color="#7fbe26"/></linearGradient><linearGradient id="_GS_Jade_Lt_Blue_to_Lt_Blue" x1="287.9131894" x2="323.6762294" y1="147.5369491" y2="183.2999891" gradientUnits="userSpaceOnUse"><stop offset="0" stop-color="#7dccf3"/><stop offset="1" stop-color="#00b1c3"/></linearGradient><linearGradient id="_GS_Jade_to_Jade_Lt_Blue" x1="330.7709075" x2="294.6311106" y1="208.420072" y2="244.5592381" gradientUnits="userSpaceOnUse"><stop offset="0" stop-color="#00b1c3"/><stop offset="1" stop-color="#009d95"/></linearGradient><linearGradient id="_GS_Lt_Blue_to_Blue" x1="60.6113661" x2="280.4181356" y1="170.0391555" y2="170.0391555" gradientUnits="userSpaceOnUse"><stop offset="0" stop-color="#0068b6"/><stop offset="1" stop-color="#7dccf3"/></linearGradient><linearGradient id="_GS_Red_to_Yellow" x1="23.0814951" x2="323.216097" y1="51.078236" y2="51.078236" gradientUnits="userSpaceOnUse"><stop offset="0" stop-color="#f9be00"/><stop offset=".6373063" stop-color="#ee7f00"/><stop offset="1" stop-color="#ea6000"/></linearGradient><linearGradient id="_GS_Lt_Green_to_Jade" x1="32.961594" x2="284.8702997" y1="277.7395756" y2="277.7395756" gradientUnits="userSpaceOnUse"><stop offset="0" stop-color="#7fbe26"/><stop offset="1" stop-color="#009d95"/></linearGradient><style>.st7{fill:#0068b6}</style></defs><path d="M833.064 197.029V88.121h-17.288v38.888h-36.31v15.562h36.31v54.458zM783.448 91.572h-78.313v15.57h56.878c-8.301 32.32-33.71 48.906-66.904 56.863l8.292 13.322c38.732-10.025 74.519-33.202 80.047-85.755m-38.559 95.078h-17.288v51.866c0 4.692 3.981 8.644 8.651 8.644h98.546v-15.547h-89.909zm254.244-19.005V88.121h-17.281v21.607h-36.311v15.562h36.311v42.355zm-93.01-32.679c10.198 15.555 26.276 25.94 43.564 31.125l8.301-13.142c-23.684-6.739-42.877-20.404-42.877-50.491V89.847h-17.977v12.611c0 30.087-19.186 43.752-42.869 50.491l8.293 13.142c17.289-5.185 33.36-15.57 43.565-31.125m3.115 82.28h89.895v-42.691H891.076v15.033h90.775v13.484H891.95v35.444c0 4.692 3.967 8.644 8.645 8.644H1000v-15.023h-90.762z" style="fill:#76777a"/><path d="m35.091 89.462-12.01-13.246C8.381 101.359 0 130.516 0 160.16h8.28c.039-27.728 9.683-52.953 26.811-70.699" style="fill:url(#_GS_Yellow_to_Yellow_Lt_Green)"/><path d="M32.955 219.526c-15.04-14.23-24.675-33.5-24.675-59.226v-.139H0c0 30.15 5.378 58.175 16 82.607z" style="fill:url(#_GS_Yellow_Lt_Green_to_Lt_Green)"/><path d="m296.394 138.775-15.376 15.879c21.294.308 34.378 16.75 33.917 37.72h8.281c0-20.69-9.699-39.517-26.822-53.6" style="fill:url(#_GS_Jade_Lt_Blue_to_Lt_Blue)"/><path d="M323.216 192.373h-8.28c-.406 17.257-9.63 31.745-30.083 42.507l21.598 29.742c10.537-19.463 16.765-43.338 16.765-72.249" style="fill:url(#_GS_Jade_to_Jade_Lt_Blue)"/><path d="M43.73 135.995a54 54 0 0 0-.92 9.898c0 49.428 36.84 80.985 83.348 80.985 88.413 0 114.65-72.245 154.248-72.245.2 0 .401.02.612.02l15.376-15.878C277.29 123.056 248.955 113.2 214.57 113.2c-69.997 0-107.283 58.463-139.06 58.463-13.82 0-24.414-15.184-24.414-29.91 0-1.532.107-3.018.258-4.459z" style="fill:url(#_GS_Lt_Blue_to_Blue)"/><path d="M98.527 63.504c51.1 0 86.567 38.652 132.157 38.652 54.677 0 84.933-26.636 92.532-78.687l-8.28-1.37c-2.309 13.785-11.296 30.36-27.405 30.36-15.2 0-31.312-13.349-54.77-26.23C209.261 12.878 182.326 0 148.71 0 94.644 0 49.024 31.856 23.081 76.216l12.01 13.246c15.52-16.065 37.187-25.958 63.436-25.958" style="fill:url(#_GS_Red_to_Yellow)"/><path d="M151.938 255.877c-39.569 0-89.608-8.575-118.983-36.35l-16.956 23.241c24.387 56.098 76.417 93.185 154.36 93.185 51.521 0 108.525-20.403 136.092-71.331l-21.598-29.742c-25.394 13.366-68.13 20.997-132.915 20.997" style="fill:url(#_GS_Lt_Green_to_Jade)"/><path d="M459.043 251.371c-51.179 0-79.46-33.64-79.46-83.4 0-50.026 30.622-83.907 80.405-83.907 19.858 0 36.44 4.664 49.303 11.919l-5.371 34.81c-12.164-7.698-26.415-13.75-43.014-13.75-27.815 0-41.34 20.54-41.34 50.679 0 30.379 14.017 51.657 41.809 51.657 8.892 0 15.197-1.647 21.733-5.154v-28.74h-28.04l-4.686-29.68h67.55v78.515c-16.835 11.006-36.693 17.051-58.889 17.051M594.587 250.211c-21.75 0-39.955-4.665-56.321-12.146l5.836-34.12c16.586 8.89 35.061 14.965 51.18 14.965 11.449 0 19.401-4.923 19.401-14.488 0-9.122-4.68-13.338-27.352-21.98-32.242-12.387-46.267-22.897-46.267-49.544 0-31.07 24.3-47.663 55.137-47.663 21.078 0 34.62 3.978 48.627 10.748l-6.073 33.652c-14.455-8.425-29.682-13.068-42.074-13.068-12.146 0-17.99 5.119-17.99 12.604 0 8.174 4.435 12.152 24.53 19.864 35.103 12.842 49.1 24.999 49.1 50.701 0 35.06-25.705 50.475-57.734 50.475" class="st7"/></svg>