<?xml version="1.0" encoding="UTF-8"?>
<svg xmlns="http://www.w3.org/2000/svg" viewBox="0 0 1605.946 513.608" data-variant="primary" data-color-mode="color" data-clear-space-x="60.845">
  <path id="dot" d="M 378.513 60.845 L 439.342 60.862 L 439.327 119.224 L 378.497 119.207 L 378.513 60.845 Z" fill="#F0811E" fill-rule="nonzero"/>
  <path id="letter-j" d="M 62.023 346.416 L 238.986 346.955 C 244.029 346.943 249.625 344.667 254.634 342.937 C 270.417 337.481 275.297 317.102 275.378 299.156 L 275.273 155.727 L 338.619 156.091 L 338.476 306.137 L 336.497 326.985 C 333.619 357.318 310.372 381.081 280.607 389.011 C 272.298 391.276 264.655 392.903 256.560 392.980 L 217.159 393.353 L 60.988 393.514 L 60.845 347.434 C 61.696 347.738 62.232 347.231 62.023 346.416 Z" fill="#136A36" fill-rule="nonzero"/>
  <path id="letter-i" d="M 376.754 155.657 L 441.220 155.693 L 441.086 393.522 L 376.619 393.485 L 376.754 155.657 Z" fill="#136A36" fill-rule="nonzero"/>
  <path id="letter-y" d="M 480.605 155.387 C 480.512 155.887 481.228 156.332 482.254 156.330 L 541.665 155.756 C 544.868 155.775 547.778 158.904 549.533 161.046 L 586.938 206.705 L 658.188 296.219 L 691.308 254.487 C 695.327 249.544 699.973 245.573 702.668 239.649 L 713.112 227.254 L 734.573 201.528 L 765.336 163.221 L 774.338 155.558 L 843.710 155.684 L 796.593 212.483 L 779.363 233.571 L 701.769 327.741 C 697.891 332.447 691.161 337.670 691.026 343.558 L 689.880 393.396 L 627.079 393.356 L 626.347 352.573 C 626.129 340.422 619.075 333.316 611.094 323.625 L 588.876 296.648 L 566.847 269.637 L 529.458 224.172 L 502.491 191.057 L 488.747 174.771 L 473.220 156.065 L 480.605 155.387 Z" fill="#136A36" fill-rule="nonzero"/>
  <path id="letter-o" d="M 1067.534 348.688 C 1077.753 348.677 1086.640 346.902 1095.000 342.871 C 1104.398 338.338 1109.129 329.313 1111.074 319.101 C 1114.401 301.623 1113.874 284.166 1113.943 266.190 C 1113.996 251.950 1113.769 238.189 1109.683 224.747 C 1105.850 212.138 1096.401 202.065 1083.402 201.029 L 1060.920 199.238 L 957.585 199.282 C 935.113 199.292 912.230 201.537 906.040 225.028 C 902.681 237.771 901.963 250.805 902.161 264.149 L 902.820 308.706 C 902.948 317.343 905.504 325.636 910.164 332.775 C 917.514 344.034 933.764 348.837 947.477 348.822 L 1067.534 348.688 Z M 942.695 154.403 L 1081.589 154.484 C 1098.265 154.494 1114.082 158.113 1129.114 164.349 C 1147.400 171.936 1160.386 185.975 1167.267 204.322 C 1171.513 215.643 1173.808 227.119 1174.050 239.337 L 1174.943 284.302 C 1175.297 302.094 1174.463 319.261 1170.320 336.440 C 1160.453 377.343 1119.909 394.005 1080.149 394.127 L 942.311 394.550 C 914.772 394.634 883.431 387.693 863.824 368.686 C 857.773 362.820 852.649 355.322 848.885 347.930 C 846.280 342.814 842.365 327.841 841.823 322.200 L 841.044 314.099 L 840.710 247.572 L 844.903 212.733 C 845.624 206.746 848.107 202.344 851.138 197.173 C 858.850 184.017 869.427 173.129 883.464 166.524 L 894.955 161.116 C 910.613 156.797 926.211 154.393 942.695 154.403 Z" fill="#136A36" fill-rule="nonzero"/>
  <path id="letter-u" d="M 1227.372 155.515 C 1227.716 155.864 1228.462 156.363 1229.439 156.357 L 1270.578 156.108 C 1273.080 156.093 1275.855 154.761 1274.671 156.330 L 1274.997 303.181 C 1275.020 314.050 1281.737 325.132 1288.214 333.610 C 1295.122 342.651 1307.016 347.106 1318.511 347.123 L 1437.371 347.300 C 1448.927 347.317 1465.936 342.441 1471.653 335.322 C 1483.128 321.026 1481.977 307.285 1484.537 304.590 C 1485.268 303.820 1485.497 302.982 1485.497 301.240 L 1484.593 155.642 L 1545.055 155.651 L 1545.101 261.183 C 1544.871 261.578 1544.455 262.254 1544.455 263.284 L 1544.606 319.003 L 1541.704 333.544 C 1537.509 354.560 1524.411 371.449 1505.611 381.465 C 1495.018 387.107 1483.930 391.000 1471.671 392.320 L 1447.554 394.917 L 1354.547 395.014 L 1307.316 394.389 C 1288.452 394.139 1270.457 389.545 1254.042 380.792 C 1238.712 372.619 1227.789 360.347 1221.976 343.809 C 1217.773 331.861 1215.526 319.436 1215.508 306.146 L 1215.297 155.813 L 1227.372 155.515 Z" fill="#136A36" fill-rule="nonzero"/>
  <path id="sense-bar-1" d="M 93.937 431.107 L 331.225 431.107 C 337.205 431.107 342.053 435.955 342.053 441.935 L 342.053 441.935 C 342.053 447.915 337.205 452.763 331.225 452.763 L 93.937 452.763 C 87.957 452.763 83.109 447.915 83.109 441.935 L 83.109 441.935 C 83.109 435.955 87.957 431.107 93.937 431.107 Z" fill="#305E99" fill-rule="nonzero"/>
  <path id="sense-bar-2" d="M 389.133 431.107 L 626.421 431.107 C 632.401 431.107 637.249 435.955 637.249 441.935 L 637.249 441.935 C 637.249 447.915 632.401 452.763 626.421 452.763 L 389.133 452.763 C 383.153 452.763 378.305 447.915 378.305 441.935 L 378.305 441.935 C 378.305 435.955 383.153 431.107 389.133 431.107 Z" fill="#C08D37" fill-rule="nonzero"/>
  <path id="sense-bar-3" d="M 684.329 431.107 L 921.617 431.107 C 927.597 431.107 932.445 435.955 932.445 441.935 L 932.445 441.935 C 932.445 447.915 927.597 452.763 921.617 452.763 L 684.329 452.763 C 678.349 452.763 673.501 447.915 673.501 441.935 L 673.501 441.935 C 673.501 435.955 678.349 431.107 684.329 431.107 Z" fill="#4B9A87" fill-rule="nonzero"/>
  <path id="sense-bar-4" d="M 979.525 431.107 L 1216.813 431.107 C 1222.793 431.107 1227.641 435.955 1227.641 441.935 L 1227.641 441.935 C 1227.641 447.915 1222.793 452.763 1216.813 452.763 L 979.525 452.763 C 973.545 452.763 968.697 447.915 968.697 441.935 L 968.697 441.935 C 968.697 435.955 973.545 431.107 979.525 431.107 Z" fill="#B85038" fill-rule="nonzero"/>
  <path id="sense-bar-5" d="M 1274.721 431.107 L 1512.009 431.107 C 1517.989 431.107 1522.837 435.955 1522.837 441.935 L 1522.837 441.935 C 1522.837 447.915 1517.989 452.763 1512.009 452.763 L 1274.721 452.763 C 1268.741 452.763 1263.893 447.915 1263.893 441.935 L 1263.893 441.935 C 1263.893 435.955 1268.741 431.107 1274.721 431.107 Z" fill="#664D8F" fill-rule="nonzero"/>
</svg>
